# xmcd CD database file
#
# Track frame offsets:
#	150
#	15615
#	28883
#	42733
#	58777
#	71097
#	92314
#	108793
#	127727
#	139271
#	155598
#	179099
#
# Disc length: 2587 seconds
#
# Revision: 0
# Processed by: cddbd v1.5.1PL0 Copyright (c) Steve Scherf et al.
# Submitted via: CdAid (MTCDDB.DLL V2003.01.23)
#
DISCID=a60a190c
DTITLE=Chuck Campbell - Walkin A Little Straighter
DYEAR=2005
DGENRE=Country
TTITLE0=Walkin A Little Straighter
TTITLE1=Folks Told Me
TTITLE2=Will You Sing Me Into Glory
TTITLE3=Foot of the Cross
TTITLE4=Jesus~Jesus
TTITLE5=April
TTITLE6=Hills of Alabama	
TTITLE7=T-Shirt On His Pillow
TTITLE8=Who's Gonna Get'cha
TTITLE9=Just Don't Forget
TTITLE10=They Took
TTITLE11=Automobile
EXTD=YEAR: 2005 ID3G:  17 
EXTT0=
EXTT1=
EXTT2=
EXTT3=
EXTT4=
EXTT5=
EXTT6=
EXTT7=
EXTT8=
EXTT9=
EXTT10=
EXTT11=
PLAYORDER=
